<svg width="70" height="70" viewBox="0 0 118 118" fill="none" xmlns="http://www.w3.org/2000/svg">
<path d="M53.0855 113.588C51.4152 113.408 50.8286 113.139 50.6931 112.605L48.2406 112.739C48.6001 114.105 49.9593 114.819 52.93 115.14C56.0082 115.472 57.7541 114.84 57.906 113.432C58.04 112.191 57.0277 111.394 54.4371 111.018L51.9777 110.656C51.0868 110.524 50.8491 110.377 50.8813 110.079C50.92 109.721 51.6287 109.641 53.6211 109.856C55.0766 110.013 55.7906 110.331 55.9197 110.925L58.4557 110.8C58.0588 109.333 56.7618 108.602 53.7672 108.278C50.2835 107.902 48.5256 108.533 48.3569 110.096C48.2281 111.289 49.1685 111.97 51.6491 112.359L54.0978 112.707L54.448 112.764C55.247 112.905 55.4864 113.038 55.458 113.301C55.4181 113.671 54.7439 113.767 53.0855 113.588ZM47.1815 107.473L44.7927 106.633L43.9613 109C43.4879 110.347 42.1752 110.789 40.4431 110.18C39.2203 109.75 38.7886 108.988 39.1466 107.969L40.1848 105.014L37.796 104.175L36.5907 107.605C35.9184 109.519 36.7452 110.967 39.0208 111.766C40.4926 112.283 41.9516 112.185 43.0543 111.581L41.8093 115.124L44.1981 115.964L47.1815 107.473ZM31.9802 100.471C29.0454 98.5565 26.762 98.5427 25.5491 100.402C24.3493 102.241 25.2892 104.359 28.2039 106.26C31.1085 108.155 33.4452 108.175 34.645 106.335C35.8448 104.496 34.8849 102.366 31.9802 100.471ZM30.9706 102.019C32.6289 103.1 33.0838 103.985 32.4741 104.919C31.8643 105.854 30.8719 105.794 29.2135 104.712C27.5551 103.63 27.1104 102.753 27.7201 101.818C28.3298 100.883 29.3122 100.937 30.9706 102.019ZM24.6914 94.7947L23.2303 93.1232L18.5122 94.235L20.253 89.717L18.7999 88.0546L11.6589 89.9135L13.3805 91.8832L17.6155 90.6199L16.0103 94.8918L17.5345 96.6356L21.949 95.4864L20.1565 99.6352L21.965 101.704L24.6914 94.7947ZM16.1564 84.6418L14.9876 82.3957L12.9544 83.4537C11.7196 84.0963 10.4805 83.4829 9.59424 81.7798C9.38374 81.3752 9.22136 80.9592 9.14588 80.6062L7.02069 81.6174C7.06033 81.7456 7.14983 81.9696 7.22184 82.1079C7.9752 83.5557 9.23006 84.4854 10.5865 84.7264L9.23253 85.6339L10.3016 87.6884L16.1564 84.6418ZM11.3769 72.5529C10.4986 69.4966 9.49789 68.2734 8.02733 68.1091L8.30323 70.6768C8.81268 70.7552 9.25055 71.4534 9.70461 73.0334C10.1752 74.6712 10.0811 75.6471 9.4077 76.1278L7.18381 68.389C6.95142 68.4058 6.76358 68.4473 6.47524 68.5302C4.48 69.1036 3.85219 71.394 4.75699 74.5426C5.6883 77.7835 7.52197 79.3416 9.56336 78.755C11.6624 78.1518 12.3281 75.8629 11.3769 72.5529ZM6.35679 74.0704C5.92262 72.5595 5.97405 71.6957 6.60625 71.2019L8.11756 76.4611C7.34271 76.3716 6.80753 75.6389 6.35679 74.0704ZM9.53966 61.1411C9.395 57.9644 8.7056 56.5423 7.31336 56.0411L6.98554 58.6026C7.46288 58.7971 7.72668 59.5779 7.80146 61.2202C7.87898 62.9225 7.56084 63.8499 6.7942 64.1611L6.42791 56.1174C6.19797 56.0799 6.00562 56.0766 5.70593 56.0903C3.63208 56.1847 2.48961 58.2668 2.63864 61.5394C2.79203 64.9079 4.21381 66.8493 6.33561 66.7526C8.51735 66.6533 9.69633 64.5815 9.53966 61.1411ZM4.30436 61.4516C4.23285 59.8812 4.48344 59.0529 5.21302 58.7194L5.46194 64.1857C4.72904 63.9188 4.3786 63.0819 4.30436 61.4516ZM9.54137 51.883L0.602058 50.8396L0.308517 53.3546L9.24783 54.398L9.54137 51.883ZM8.89385 36.5372L9.08421 36.1277C9.66731 34.9193 10.0725 34.5341 10.5695 34.5672L11.2027 32.1941C9.79218 32.1122 8.69201 33.1831 7.46623 35.9081C6.19616 38.7316 6.25607 40.5876 7.54743 41.1685C8.68558 41.6804 9.75735 40.9651 10.9181 38.6188L12.0246 36.3928C12.4267 35.5868 12.6395 35.4062 12.9131 35.5293C13.2414 35.6769 13.0981 36.3757 12.276 38.2033C11.6755 39.5384 11.1514 40.1185 10.5473 40.0573L9.87959 42.507C11.3974 42.5845 12.4948 41.5781 13.7305 38.8312C15.1679 35.6356 15.1129 33.7687 13.6793 33.1239C12.5849 32.6316 11.6461 33.3146 10.5078 35.5526L9.4171 37.7726L9.25428 38.0877C8.87275 38.8038 8.6727 38.9904 8.4313 38.8818C8.09204 38.7292 8.20958 38.0583 8.89385 36.5372ZM16.5262 32.8296L18.0623 30.8167L16.0685 29.2952C14.9333 28.4289 14.9185 27.0439 16.0323 25.5844C16.8185 24.5541 17.6768 24.3789 18.5354 25.0341L21.0252 26.9341L22.5613 24.9213L19.6708 22.7155C18.0586 21.4852 16.4261 21.8244 14.9629 23.7418C14.0165 24.9819 13.659 26.3998 13.8935 27.6354L10.9076 25.3568L9.37156 27.3696L16.5262 32.8296ZM27.8658 20.5241C30.5874 18.3171 31.3001 16.1477 29.9018 14.4234C28.5187 12.7178 26.2151 12.9636 23.5122 15.1555C20.8186 17.3399 20.0836 19.5581 21.4668 21.2637C22.85 22.9694 25.1722 22.7085 27.8658 20.5241ZM26.7018 19.0887C25.1639 20.3359 24.183 20.4979 23.48 19.6311C22.7771 18.7643 23.1383 17.838 24.6762 16.5909C26.2141 15.3437 27.1857 15.1892 27.8886 16.056C28.5915 16.9228 28.2397 17.8416 26.7018 19.0887ZM35.5225 15.3223L37.5628 14.4474L37.9588 9.61625L41.7206 12.6643L43.7499 11.7941L44.1815 4.42769L41.7773 5.45874L41.6743 9.87696L38.1047 7.03368L35.9762 7.94649L35.7094 12.5003L32.3147 9.51671L29.7891 10.5998L35.5225 15.3223ZM47.7945 10.3399L50.2923 9.92501L49.9167 7.66399C49.6886 6.2908 50.6559 5.30297 52.5499 4.98838C52.9997 4.91367 53.4456 4.88827 53.8046 4.92595L53.5021 2.59198C53.368 2.58993 53.1273 2.60558 52.9734 2.63114C51.3635 2.89854 50.0905 3.80334 49.4408 5.01822L48.9978 3.4496L46.7131 3.82908L47.7945 10.3399ZM60.7838 9.52239C63.9621 9.62557 65.4336 9.04901 66.0417 7.70003L63.5135 7.17372C63.2824 7.63446 62.4834 7.83665 60.8403 7.78331C59.1372 7.72802 58.2373 7.33862 57.9868 6.55007L66.0345 6.81133C66.0899 6.58501 66.1081 6.3935 66.1179 6.09365C66.1852 4.01875 64.1984 2.7176 60.9241 2.6113C57.5539 2.50189 55.5077 3.76817 55.4388 5.89105C55.368 8.0739 57.3416 9.41065 60.7838 9.52239ZM60.882 4.27881C62.4532 4.32982 63.2594 4.64414 63.5351 5.39749L58.066 5.21994C58.3892 4.51005 59.2509 4.22586 60.882 4.27881ZM72.2024 11.2805C75.2701 12.1184 76.8352 11.899 77.7397 10.7279L75.4025 9.62931C75.0709 10.0239 74.2468 10.0351 72.6609 9.602C71.0171 9.15305 70.2321 8.56549 70.1714 7.74033L77.9389 9.86178C78.0453 9.65448 78.1074 9.47243 78.1865 9.18303C78.7334 7.18037 77.1027 5.45373 73.9425 4.59061C70.6896 3.70219 68.4055 4.45914 67.8459 6.5081C67.2705 8.61493 68.8801 10.3731 72.2024 11.2805ZM73.5146 6.20284C75.031 6.61701 75.7423 7.10982 75.8357 7.90658L70.5571 6.46488C71.0361 5.84936 71.9402 5.77286 73.5146 6.20284ZM81.0218 14.1414L84.7858 5.96632L82.4859 4.90738L78.7219 13.0825L81.0218 14.1414ZM95.7922 18.2498L96.1232 18.5569C97.0936 19.4836 97.3355 19.9876 97.151 20.4503L99.2142 21.783C99.7261 20.4661 99.0456 19.0898 96.8299 17.085C94.5342 15.0078 92.7499 14.4938 91.7998 15.5437C90.9625 16.4692 91.3133 17.709 93.1887 19.5354L94.9662 21.2731C95.6095 21.9037 95.7158 22.1617 95.5145 22.3842C95.273 22.6511 94.6522 22.2998 93.1662 20.9553C92.0807 19.973 91.69 19.2959 91.9341 18.74L89.8087 17.3509C89.2679 18.7713 89.8878 20.1251 92.1213 22.146C94.7195 24.4969 96.5128 25.019 97.5675 23.8533C98.3726 22.9635 98.0116 21.8601 96.2324 20.0884L94.4557 18.3676L94.2059 18.1157C93.642 17.5323 93.526 17.2846 93.7036 17.0883C93.9532 16.8125 94.5553 17.1307 95.7922 18.2498ZM96.9783 26.6584L98.4231 28.7376L100.483 27.3065C101.655 26.4916 102.978 26.9021 104.026 28.4099C104.765 29.4741 104.669 30.3448 103.782 30.9611L101.21 32.7484L102.655 34.8276L105.641 32.7528C107.306 31.5955 107.484 29.9377 106.108 27.9569C105.217 26.6759 103.977 25.9009 102.729 25.7452L105.814 23.6019L104.369 21.5226L96.9783 26.6584ZM105.208 41.244C106.468 44.514 108.311 45.8617 110.383 45.064C112.432 44.2749 112.909 42.008 111.659 38.7604C110.413 35.524 108.53 34.1402 106.48 34.9292C104.431 35.7183 103.962 38.0076 105.208 41.244ZM106.933 40.58C106.222 38.7322 106.37 37.7491 107.412 37.3481C108.453 36.9471 109.223 37.5767 109.934 39.4244C110.646 41.2722 110.493 42.2441 109.451 42.6451C108.41 43.0461 107.645 42.4278 106.933 40.58ZM107.784 50.1095L107.985 52.3204L112.456 54.1917L108.394 56.8259L108.594 59.0248L115.465 61.7145L115.228 59.1092L111.059 57.6443L114.867 55.1296L114.658 52.8231L110.41 51.1604L114.297 48.8554L114.049 46.1186L107.784 50.1095ZM108.737 63.3393L108.369 65.8443L110.636 66.178C112.014 66.3807 112.658 67.6036 112.379 69.5032C112.312 69.9543 112.2 70.3866 112.055 70.7169L114.369 71.1424C114.412 71.0153 114.471 70.7814 114.494 70.6271C114.731 69.0124 114.259 67.5238 113.301 66.5338L114.93 66.5916L115.267 64.3002L108.737 63.3393ZM105.527 75.9356C104.447 78.9267 104.541 80.5043 105.636 81.4993L106.918 79.2571C106.551 78.895 106.605 78.0726 107.163 76.5263C107.742 74.9235 108.39 74.1878 109.217 74.193L106.484 81.7668C106.682 81.8894 106.859 81.9659 107.141 82.0677C109.093 82.7725 110.945 81.2845 112.057 78.2031C113.201 75.0313 112.629 72.6941 110.631 71.9731C108.577 71.2317 106.696 72.6961 105.527 75.9356ZM110.484 77.6481C109.95 79.1267 109.402 79.7965 108.6 79.8261L110.458 74.6791C111.033 75.2057 111.038 76.113 110.484 77.6481ZM100.333 86.2501C98.588 88.9083 98.3126 90.4645 99.1466 91.6868L100.914 89.804C100.641 89.3666 100.886 88.5794 101.788 87.2051C102.723 85.7807 103.525 85.216 104.328 85.4134L99.9086 92.1441C100.073 92.3094 100.227 92.4248 100.478 92.5895C102.213 93.7289 104.359 92.7121 106.157 89.9736C108.008 87.155 107.995 84.7487 106.219 83.5829C104.393 82.3842 102.224 83.3712 100.333 86.2501ZM104.756 89.0682C103.894 90.3822 103.205 90.9063 102.418 90.7487L105.422 86.1746C105.859 86.8205 105.652 87.704 104.756 89.0682ZM94.8832 93.7641L96.5987 91.9018L103.218 97.9997L101.503 99.8619L94.8832 93.7641Z" fill="white"/>
<circle cx="59" cy="59" r="4" fill="black"/>
</svg>
